<svg width="30" height="24" viewBox="0 0 30 24" fill="none" xmlns="http://www.w3.org/2000/svg">
<path d="M25.9091 6H21.8182V0H2.72727C1.22727 0 0 1.35 0 3V19.5H2.72727C2.72727 21.99 4.55455 24 6.81818 24C9.08182 24 10.9091 21.99 10.9091 19.5H19.0909C19.0909 21.99 20.9182 24 23.1818 24C25.4455 24 27.2727 21.99 27.2727 19.5H30V12L25.9091 6ZM25.2273 8.25L27.9 12H21.8182V8.25H25.2273ZM6.81818 21C6.06818 21 5.45455 20.325 5.45455 19.5C5.45455 18.675 6.06818 18 6.81818 18C7.56818 18 8.18182 18.675 8.18182 19.5C8.18182 20.325 7.56818 21 6.81818 21ZM9.84546 16.5C9.09546 15.585 8.03182 15 6.81818 15C5.60455 15 4.54091 15.585 3.79091 16.5H2.72727V3H19.0909V16.5H9.84546ZM23.1818 21C22.4318 21 21.8182 20.325 21.8182 19.5C21.8182 18.675 22.4318 18 23.1818 18C23.9318 18 24.5455 18.675 24.5455 19.5C24.5455 20.325 23.9318 21 23.1818 21Z" fill="#323232"/>
</svg>
