<svg width="30" height="24" viewBox="0 0 30 24" fill="none" xmlns="http://www.w3.org/2000/svg">
<g clip-path="url(#clip0_3_23)">
<path d="M24.3333 17.3333H23.8067L23.62 17.1533C24.2733 16.3933 24.6667 15.4067 24.6667 14.3333C24.6667 11.94 22.7267 10 20.3333 10C17.94 10 16 11.94 16 14.3333C16 16.7267 17.94 18.6667 20.3333 18.6667C21.4067 18.6667 22.3933 18.2733 23.1533 17.62L23.3333 17.8067V18.3333L26.6667 21.66L27.66 20.6667L24.3333 17.3333ZM20.3333 17.3333C18.6733 17.3333 17.3333 15.9933 17.3333 14.3333C17.3333 12.6733 18.6733 11.3333 20.3333 11.3333C21.9933 11.3333 23.3333 12.6733 23.3333 14.3333C23.3333 15.9933 21.9933 17.3333 20.3333 17.3333Z" fill="#323232"/>
</g>
<g clip-path="url(#clip1_3_23)">
<path d="M15 18L3 18V16L15 16V18ZM21 6V8L3 8V6L21 6ZM15 13L3 13V11L15 11L15 13Z" fill="#323232"/>
</g>
<defs>
<clipPath id="clip0_3_23">
<rect width="16" height="16" fill="white" transform="translate(14 8)"/>
</clipPath>
<clipPath id="clip1_3_23">
<rect width="24" height="24" fill="white" transform="matrix(-1 0 0 1 24 0)"/>
</clipPath>
</defs>
</svg>
