<svg width="170" height="49" viewBox="0 0 170 49" fill="none" xmlns="http://www.w3.org/2000/svg">
<rect x="-2.10871" y="-1.88586" width="162.436" height="36.3442" transform="matrix(0.998458 -0.0555074 0.0558969 0.998437 5.10216 11.0097)" stroke="#FF0000" stroke-width="4" stroke-linecap="round" stroke-dasharray="10 20 30 10"/>
<path d="M25.9222 36.5159C24.3229 36.6269 23.0131 36.5627 21.993 36.3236C20.9804 36.0757 20.1907 35.69 19.6239 35.1664C19.057 34.6429 18.6498 34.0104 18.4022 33.2689C18.1546 32.5274 17.9999 31.7143 17.938 30.8294L17.5185 24.8259C17.455 23.9167 17.4896 23.07 17.6224 22.2858C17.7628 21.4929 18.0727 20.7903 18.552 20.1778C19.0394 19.5648 19.7713 19.0653 20.7478 18.6794C21.7237 18.2854 23.0153 18.0326 24.6228 17.9211C26.1572 17.8146 27.4023 17.8873 28.358 18.1391C29.3213 18.3822 30.0664 18.771 30.5932 19.3055C31.12 19.84 31.4956 20.4869 31.72 21.2463C31.9438 21.9976 32.0875 22.8279 32.151 23.7371L32.1664 23.9563L28.6516 24.6162L28.5877 23.7029C28.5287 22.8587 28.3778 22.2165 28.135 21.7765C27.8915 21.3285 27.5079 21.0329 26.9839 20.8897C26.4594 20.7385 25.7385 20.6947 24.8211 20.7584C23.4815 20.8514 22.5058 21.1312 21.8939 21.5978C21.2821 22.0645 21.0193 22.9148 21.1055 24.1488L21.5803 30.9437C21.6376 31.7636 21.8237 32.3829 22.1385 32.8016C22.4527 33.2122 22.9037 33.4786 23.4914 33.601C24.0867 33.7147 24.835 33.7402 25.7361 33.6777C26.6535 33.614 27.3626 33.4873 27.8632 33.2976C28.3634 33.0997 28.6996 32.7746 28.8719 32.3221C29.0518 31.861 29.1119 31.2042 29.0524 30.3518L29.0124 29.7794L32.5561 29.5335L32.5791 29.8623C32.6409 30.7472 32.6168 31.5687 32.5066 32.3269C32.3964 33.085 32.1214 33.7608 31.6815 34.3542C31.2411 34.9394 30.5608 35.419 29.6406 35.7929C28.7205 36.1667 27.481 36.4077 25.9222 36.5159ZM35.3744 35.5418L40.0367 17.1574L44.8348 16.8244L52.0823 34.3824L48.2463 34.6486L47.0086 31.296L39.9455 31.7862L39.1495 35.2798L35.3744 35.5418ZM40.6022 28.9262L45.9848 28.5527L42.7099 19.6883L40.6022 28.9262ZM53.9924 16.1889L61.0433 15.6996C63.0161 15.5627 64.5171 15.9113 65.5461 16.7454C66.5747 17.5714 67.1598 18.9991 67.3016 21.0287C67.3987 22.4169 67.2876 23.5707 66.9684 24.4902C66.6487 25.4016 66.0492 26.104 65.17 26.5973C64.2989 27.0901 63.08 27.3909 61.5131 27.4996L58.4321 27.7134L58.8653 33.9117L55.2485 34.1627L53.9924 16.1889ZM61.9008 24.8174C62.8182 24.7538 63.4046 24.4479 63.6599 23.9C63.9148 23.3439 64.0045 22.526 63.929 21.4463C63.8632 20.5046 63.6658 19.7229 63.3368 19.1013C63.0073 18.4715 62.4163 18.1862 61.5639 18.2454L57.7888 18.5074L58.2475 25.0709L61.9008 24.8174ZM74.672 32.8148L73.6083 17.5931L68.6032 17.9404L68.4109 15.1884L82.0256 14.2436L82.2179 16.9957L77.2129 17.343L78.2766 32.5647L74.672 32.8148ZM93.46 31.8292C91.9256 31.9356 90.6527 31.8731 89.6412 31.6414C88.6379 31.4092 87.8412 31.0403 87.2511 30.5347C86.6692 30.0285 86.2431 29.4177 85.9728 28.7023C85.7107 27.9863 85.5496 27.198 85.4894 26.3375L84.6308 14.0506L88.2476 13.7996L89.1173 26.2448C89.2001 27.4301 89.597 28.2061 90.3078 28.5728C91.0269 28.9389 92.0115 29.0786 93.2617 28.9919C94.5282 28.904 95.4471 28.6281 96.0184 28.1643C96.5977 27.6999 96.8466 26.8832 96.7649 25.7141L95.8952 13.2689L99.512 13.0179L100.36 25.1587C100.42 26.0111 100.374 26.8178 100.224 27.5788C100.073 28.3397 99.7535 29.0227 99.2655 29.6276C98.785 30.2238 98.0769 30.7134 97.141 31.0965C96.2052 31.4796 94.9782 31.7238 93.46 31.8292ZM105.226 30.6945L103.97 12.7208L111.727 12.1825C113.318 12.0721 114.564 12.21 115.464 12.5962C116.364 12.9824 117.008 13.5658 117.397 14.3464C117.794 15.1265 118.031 16.0564 118.106 17.1361C118.158 17.8748 118.137 18.5737 118.045 19.2328C117.959 19.8831 117.743 20.4692 117.396 20.9908C117.05 21.5125 116.521 21.9489 115.812 22.3L119.815 29.6822L116.064 29.9424L112.414 23.0619L108.347 23.3442L108.843 30.4436L105.226 30.6945ZM108.166 20.7626L112.611 20.4541C113.228 20.4113 113.686 20.2571 113.986 19.9916C114.293 19.7174 114.489 19.3694 114.574 18.9475C114.666 18.5169 114.694 18.0458 114.659 17.5344C114.625 17.0473 114.539 16.5801 114.402 16.1328C114.272 15.6849 114.048 15.3294 113.727 15.0661C113.415 14.7941 112.958 14.679 112.357 14.7206L107.766 15.0392L108.166 20.7626ZM122.042 11.4667L133.818 10.6496L134.008 13.3773L125.837 13.9443L126.17 18.7178L133.416 18.215L133.598 20.821L126.353 21.3238L126.712 26.4626L135.017 25.8863L135.208 28.614L123.298 29.4405L122.042 11.4667ZM139.056 28.347L137.8 10.3732L145.593 9.83239C147.331 9.71182 148.698 9.89838 149.695 10.3921C150.692 10.8776 151.414 11.5821 151.862 12.5054C152.309 13.4207 152.574 14.4669 152.656 15.644L153.042 21.1603C153.125 22.3537 152.997 23.4313 152.656 24.393C152.323 25.3542 151.697 26.136 150.776 26.7383C149.855 27.3324 148.55 27.6881 146.862 27.8053L139.056 28.347ZM142.476 25.283L146.348 25.0143C147.623 24.9258 148.475 24.6301 148.905 24.1272C149.343 23.6236 149.527 22.8726 149.457 21.8741L149.006 15.4201C148.938 14.4459 148.647 13.7237 148.133 13.2537C147.626 12.7749 146.744 12.5792 145.486 12.6665L141.613 12.9352L142.476 25.283Z" fill="#FC0000"/>
</svg>
